<svg width="22" height="22" viewBox="0 0 22 22" fill="none" xmlns="http://www.w3.org/2000/svg">
<path d="M15.5833 17.6183H4.58333V6.41659H11V4.58325H4.58333C3.575 4.58325 2.75 5.40825 2.75 6.41659V17.4166C2.75 18.4249 3.575 19.2499 4.58333 19.2499H15.5833C16.5917 19.2499 17.4167 18.4249 17.4167 17.4166V10.9999H15.5833V17.6183Z" fill="#98989E"/>
<path d="M17.417 1.83325H15.5837V4.58325H12.8337C12.8428 4.59242 12.8337 6.41659 12.8337 6.41659H15.5837V9.15742C15.5928 9.16659 17.417 9.15742 17.417 9.15742V6.41659H20.167V4.58325H17.417V1.83325ZM6.41699 8.24992H13.7503V10.0833H6.41699V8.24992ZM6.41699 10.9999V12.8333H13.7503V10.9999H11.0003H6.41699ZM6.41699 13.7499H13.7503V15.5833H6.41699V13.7499Z" fill="#98989E"/>
</svg>
