<svg width="19" height="18" viewBox="0 0 19 18" fill="none" xmlns="http://www.w3.org/2000/svg">
<path d="M12.1101 12.8882C10.6636 14.0119 8.84311 14.542 7.01941 14.3706C5.19571 14.1992 3.5059 13.3391 2.29406 11.9656C1.08222 10.592 0.439469 8.80817 0.49668 6.97732C0.553891 5.14648 1.30676 3.40627 2.602 2.11103C3.89723 0.815796 5.63744 0.0629241 7.46829 0.0057133C9.29914 -0.0514975 11.083 0.591254 12.4565 1.80309C13.8301 3.01493 14.6902 4.70474 14.8616 6.52844C15.033 8.35215 14.5029 10.1726 13.3791 11.6192L18.1941 16.4162L16.9161 17.6942L12.1191 12.8882H12.1101ZM7.70014 12.6002C8.40928 12.6002 9.11148 12.4605 9.76663 12.1891C10.4218 11.9178 11.0171 11.52 11.5185 11.0186C12.02 10.5171 12.4177 9.92183 12.6891 9.26667C12.9605 8.61151 13.1001 7.90931 13.1001 7.20018C13.1001 6.49104 12.9605 5.78884 12.6891 5.13369C12.4177 4.47853 12.02 3.88324 11.5185 3.3818C11.0171 2.88036 10.4218 2.4826 9.76663 2.21123C9.11148 1.93985 8.40928 1.80018 7.70014 1.80018C6.26797 1.80018 4.89446 2.3691 3.88177 3.3818C2.86907 4.3945 2.30014 5.76801 2.30014 7.20018C2.30014 8.63235 2.86907 10.0059 3.88177 11.0186C4.89446 12.0312 6.26797 12.6002 7.70014 12.6002Z" fill="#979797"/>
</svg>
